{"title":"The.Iceman.2014.720P.BDRiP.XViD.AC3-VeraCD","uid":10717221,"size":3607467234,"categoryP":"video","categoryS":"hd___movies","magnet":"?xt=urn:btih:0d7d50ff54f68f5da99f1273f6969a6b09353190&amp;dn=The.Iceman.2014.720P.BDRiP.XViD.AC3-VeraCD&amp;tr=udp%3A%2F%2Ftracker.openbittorrent.com%3A80&amp;tr=udp%3A%2F%2Fopen.demonii.com%3A1337&amp;tr=udp%3A%2F%2Ftracker.coppersurfer.tk%3A6969&amp;tr=udp%3A%2F%2Fexodus.desync.com%3A6969","seeders":1,"leechers":0,"uploader":null,"files":-1,"time":1407424201,"description":"Iceman revolves around a Captain America-like character portrayed by Donnie Yen. The heroic role and his evil foe (Wang Baoqiang) lived during the Ming Dynasty. Both were frozen during a fight and were defrosted in modern day Hong Kong where they continue their battle.\n\n\nFormat                         : AVI\nFormat/Info                    : Audio Video Interleave\nFormat profile                 : OpenDML\nFile size                      : 3.34 GiB\nDuration                       : 1h 44mn\nOverall bit rate               : 4 583 Kbps\nWriting application            : VirtualDubMod 1.5.10.2 (build 2540/release)\nWriting library                : VirtualDubMod build 2540/release\n\nVideo\nID                             : 0\nFormat                         : MPEG-4 Visual\nFormat profile                 : Advanced Simple@L5\nFormat settings, BVOP          : Yes\nFormat settings, QPel          : No\nFormat settings, GMC           : No warppoints\nFormat settings, Matrix        : Default (H.263)\nCodec ID                       : XVID\nCodec ID/Hint                  : XviD\nDuration                       : 1h 44mn\nBit rate                       : 4 125 Kbps\nWidth                          : 1 280 pixels\nHeight                         : 560 pixels\nDisplay aspect ratio           : 2.25:1\nFrame rate                     : 23.976 fps\nColor space                    : YUV\nChroma subsampling             : 4:2:0\nBit depth                      : 8 bits\nScan type                      : Progressive\nCompression mode               : Lossy\nBits/(Pixel*Frame)             : 0.240\nStream size                    : 3.00 GiB (90%)\nWriting library                : XviD 65\n\nAudio\nID                             : 1\nFormat                         : AC-3\nFormat/Info                    : Audio Coding 3\nMode extension                 : CM (complete main)\nFormat settings, Endianness    : Big\nCodec ID                       : 2000\nDuration                       : 1h 44mn\nBit rate mode                  : Constant\nBit rate                       : 448 Kbps\nChannel(s)                     : 6 channels\nChannel positions              : Front: L C R, Side: L R, LFE\nSampling rate                  : 48.0 KHz\nBit depth                      : 16 bits\nCompression mode               : Lossy\nStream size                    : 334 MiB (10%)\nAlignment                      : Split accross interleaves\nInterleave, duration           : 42 ms (1.00 video frame)\nInterleave, preload duration   : 500 ms\n\n","torrent":{"xt":"urn:btih:0d7d50ff54f68f5da99f1273f6969a6b09353190","amp;dn":"The.Iceman.2014.720P.BDRiP.XViD.AC3-VeraCD","amp;tr":["udp%3A%2F%2Ftracker.openbittorrent.com%3A80","udp%3A%2F%2Fopen.demonii.com%3A1337","udp%3A%2F%2Ftracker.coppersurfer.tk%3A6969","udp%3A%2F%2Fexodus.desync.com%3A6969"],"infoHash":"0d7d50ff54f68f5da99f1273f6969a6b09353190","infoHashBuffer":{"type":"Buffer","data":[13,125,80,255,84,246,143,93,169,159,18,115,246,150,154,107,9,53,49,144]},"announce":[],"urlList":[]}}